<mxfile host="app.diagrams.net" modified="2024-06-04T08:24:09.991Z" agent="Mozilla/5.0 (Macintosh; Intel Mac OS X 10.15; rv:126.0) Gecko/20100101 Firefox/126.0" etag="JUF7uiRCSXxbcgOgAjdX" version="24.4.13" type="github">
  <diagram name="Page-1" id="2a216829-ef6e-dabb-86c1-c78162f3ba2b">
    <mxGraphModel dx="852" dy="584" grid="1" gridSize="10" guides="1" tooltips="1" connect="1" arrows="1" fold="1" page="1" pageScale="1" pageWidth="850" pageHeight="1100" background="none" math="0" shadow="0">
      <root>
        <mxCell id="0" />
        <mxCell id="1" parent="0" />
        <mxCell id="75ba1CMOg3PrHAO8wLKx-22" style="edgeStyle=orthogonalEdgeStyle;rounded=0;orthogonalLoop=1;jettySize=auto;html=1;exitX=0;exitY=0.5;exitDx=0;exitDy=0;entryX=0;entryY=0.5;entryDx=0;entryDy=0;" edge="1" parent="1" source="7a84cebc1def654-1" target="9monrO0C9HARq5Gm0Uuh-5">
          <mxGeometry relative="1" as="geometry" />
        </mxCell>
        <mxCell id="75ba1CMOg3PrHAO8wLKx-27" style="edgeStyle=orthogonalEdgeStyle;rounded=0;orthogonalLoop=1;jettySize=auto;html=1;exitX=0.5;exitY=1;exitDx=0;exitDy=0;entryX=0.5;entryY=0;entryDx=0;entryDy=0;" edge="1" parent="1" source="7a84cebc1def654-1" target="9monrO0C9HARq5Gm0Uuh-6">
          <mxGeometry relative="1" as="geometry" />
        </mxCell>
        <mxCell id="75ba1CMOg3PrHAO8wLKx-33" style="edgeStyle=orthogonalEdgeStyle;rounded=0;orthogonalLoop=1;jettySize=auto;html=1;exitX=0.5;exitY=0;exitDx=0;exitDy=0;entryX=0.5;entryY=0;entryDx=0;entryDy=0;" edge="1" parent="1" source="7a84cebc1def654-1" target="9monrO0C9HARq5Gm0Uuh-25">
          <mxGeometry relative="1" as="geometry" />
        </mxCell>
        <mxCell id="7a84cebc1def654-1" value="Ошибка" style="shape=mxgraph.bpmn.shape;html=1;verticalLabelPosition=bottom;labelBackgroundColor=none;verticalAlign=top;perimeter=ellipsePerimeter;outline=standard;symbol=general;fillColor=#f8cecc;strokeColor=#b85450;" parent="1" vertex="1">
          <mxGeometry x="100" y="400" width="50" height="50" as="geometry" />
        </mxCell>
        <mxCell id="75ba1CMOg3PrHAO8wLKx-6" style="edgeStyle=orthogonalEdgeStyle;rounded=0;orthogonalLoop=1;jettySize=auto;html=1;exitX=0;exitY=0.5;exitDx=0;exitDy=0;entryX=1;entryY=0.5;entryDx=0;entryDy=0;curved=1;labelBackgroundColor=none;" edge="1" parent="1" source="9monrO0C9HARq5Gm0Uuh-1" target="9monrO0C9HARq5Gm0Uuh-8">
          <mxGeometry relative="1" as="geometry" />
        </mxCell>
        <mxCell id="75ba1CMOg3PrHAO8wLKx-17" style="edgeStyle=orthogonalEdgeStyle;rounded=0;orthogonalLoop=1;jettySize=auto;html=1;exitX=0.5;exitY=1;exitDx=0;exitDy=0;entryX=0.5;entryY=0;entryDx=0;entryDy=0;" edge="1" parent="1" source="9monrO0C9HARq5Gm0Uuh-4" target="9monrO0C9HARq5Gm0Uuh-9">
          <mxGeometry relative="1" as="geometry" />
        </mxCell>
        <mxCell id="75ba1CMOg3PrHAO8wLKx-19" style="edgeStyle=orthogonalEdgeStyle;rounded=0;orthogonalLoop=1;jettySize=auto;html=1;exitX=0.5;exitY=1;exitDx=0;exitDy=0;entryX=0.5;entryY=0;entryDx=0;entryDy=0;" edge="1" parent="1" source="9monrO0C9HARq5Gm0Uuh-4" target="9monrO0C9HARq5Gm0Uuh-7">
          <mxGeometry relative="1" as="geometry" />
        </mxCell>
        <mxCell id="75ba1CMOg3PrHAO8wLKx-36" style="edgeStyle=orthogonalEdgeStyle;rounded=0;orthogonalLoop=1;jettySize=auto;html=1;exitX=0.5;exitY=0;exitDx=0;exitDy=0;entryX=0.5;entryY=0;entryDx=0;entryDy=0;" edge="1" parent="1" source="9monrO0C9HARq5Gm0Uuh-4" target="9monrO0C9HARq5Gm0Uuh-25">
          <mxGeometry relative="1" as="geometry" />
        </mxCell>
        <mxCell id="75ba1CMOg3PrHAO8wLKx-41" style="edgeStyle=orthogonalEdgeStyle;rounded=0;orthogonalLoop=1;jettySize=auto;html=1;exitX=0;exitY=0.5;exitDx=0;exitDy=0;entryX=1;entryY=0.5;entryDx=0;entryDy=0;curved=1;" edge="1" parent="1" source="9monrO0C9HARq5Gm0Uuh-4" target="9monrO0C9HARq5Gm0Uuh-8">
          <mxGeometry relative="1" as="geometry" />
        </mxCell>
        <mxCell id="9monrO0C9HARq5Gm0Uuh-4" value="Специфическая &lt;br&gt;уязвимость" style="shape=mxgraph.bpmn.shape;html=1;verticalLabelPosition=bottom;labelBackgroundColor=none;verticalAlign=top;perimeter=ellipsePerimeter;outline=standard;symbol=general;fillColor=#f8cecc;strokeColor=#b85450;" parent="1" vertex="1">
          <mxGeometry x="700" y="400" width="50" height="50" as="geometry" />
        </mxCell>
        <mxCell id="75ba1CMOg3PrHAO8wLKx-39" style="edgeStyle=orthogonalEdgeStyle;rounded=0;orthogonalLoop=1;jettySize=auto;html=1;exitX=0.5;exitY=0;exitDx=0;exitDy=0;entryX=0;entryY=0.5;entryDx=0;entryDy=0;curved=1;" edge="1" parent="1" source="9monrO0C9HARq5Gm0Uuh-5" target="9monrO0C9HARq5Gm0Uuh-25">
          <mxGeometry relative="1" as="geometry" />
        </mxCell>
        <mxCell id="9monrO0C9HARq5Gm0Uuh-5" value="Отговорка" style="shape=mxgraph.bpmn.shape;html=1;verticalLabelPosition=bottom;labelBackgroundColor=none;verticalAlign=top;perimeter=ellipsePerimeter;outline=standard;symbol=general;fillColor=#dae8fc;strokeColor=#6c8ebf;" parent="1" vertex="1">
          <mxGeometry x="200" y="640" width="50" height="50" as="geometry" />
        </mxCell>
        <mxCell id="9monrO0C9HARq5Gm0Uuh-7" value="Патч" style="shape=mxgraph.bpmn.shape;html=1;verticalLabelPosition=bottom;labelBackgroundColor=none;verticalAlign=top;perimeter=ellipsePerimeter;outline=standard;symbol=general;fillColor=#dae8fc;strokeColor=#6c8ebf;" parent="1" vertex="1">
          <mxGeometry x="610" y="640" width="50" height="50" as="geometry" />
        </mxCell>
        <mxCell id="9monrO0C9HARq5Gm0Uuh-8" value="Костыли" style="shape=mxgraph.bpmn.shape;html=1;verticalLabelPosition=bottom;labelBackgroundColor=none;verticalAlign=top;perimeter=ellipsePerimeter;outline=standard;symbol=general;fillColor=#dae8fc;strokeColor=#6c8ebf;" parent="1" vertex="1">
          <mxGeometry x="400" y="640" width="50" height="50" as="geometry" />
        </mxCell>
        <mxCell id="9monrO0C9HARq5Gm0Uuh-9" value="Сертификат" style="shape=mxgraph.bpmn.shape;html=1;verticalLabelPosition=bottom;labelBackgroundColor=none;verticalAlign=top;perimeter=ellipsePerimeter;outline=standard;symbol=general;fillColor=#dae8fc;strokeColor=#6c8ebf;" parent="1" vertex="1">
          <mxGeometry x="700" y="640" width="50" height="50" as="geometry" />
        </mxCell>
        <mxCell id="9monrO0C9HARq5Gm0Uuh-10" value="&lt;div&gt;Бекенд&lt;/div&gt;" style="shape=mxgraph.bpmn.shape;html=1;verticalLabelPosition=bottom;labelBackgroundColor=none;verticalAlign=top;perimeter=ellipsePerimeter;outline=standard;symbol=general;fillColor=#e1d5e7;strokeColor=#9673a6;" parent="1" vertex="1">
          <mxGeometry x="100" y="160" width="50" height="50" as="geometry" />
        </mxCell>
        <mxCell id="9monrO0C9HARq5Gm0Uuh-11" value="Мониторинг" style="shape=mxgraph.bpmn.shape;html=1;verticalLabelPosition=bottom;labelBackgroundColor=none;verticalAlign=top;perimeter=ellipsePerimeter;outline=standard;symbol=general;fillColor=#e1d5e7;strokeColor=#9673a6;" parent="1" vertex="1">
          <mxGeometry x="400" y="160" width="50" height="50" as="geometry" />
        </mxCell>
        <mxCell id="9monrO0C9HARq5Gm0Uuh-12" value="&lt;div&gt;Фронтенд&lt;/div&gt;" style="shape=mxgraph.bpmn.shape;html=1;verticalLabelPosition=bottom;labelBackgroundColor=none;verticalAlign=top;perimeter=ellipsePerimeter;outline=standard;symbol=general;fillColor=#e1d5e7;strokeColor=#9673a6;" parent="1" vertex="1">
          <mxGeometry x="200" y="160" width="50" height="50" as="geometry" />
        </mxCell>
        <mxCell id="9monrO0C9HARq5Gm0Uuh-13" value="База &lt;br&gt;данных" style="shape=mxgraph.bpmn.shape;html=1;verticalLabelPosition=bottom;labelBackgroundColor=none;verticalAlign=top;perimeter=ellipsePerimeter;outline=standard;symbol=general;fillColor=#e1d5e7;strokeColor=#9673a6;" parent="1" vertex="1">
          <mxGeometry x="300" y="160" width="50" height="50" as="geometry" />
        </mxCell>
        <mxCell id="9monrO0C9HARq5Gm0Uuh-14" value="Файрвол" style="shape=mxgraph.bpmn.shape;html=1;verticalLabelPosition=bottom;labelBackgroundColor=none;verticalAlign=top;perimeter=ellipsePerimeter;outline=standard;symbol=general;fillColor=#e1d5e7;strokeColor=#9673a6;" parent="1" vertex="1">
          <mxGeometry x="500" y="160" width="50" height="50" as="geometry" />
        </mxCell>
        <mxCell id="9monrO0C9HARq5Gm0Uuh-16" value="Очередь" style="shape=mxgraph.bpmn.shape;html=1;verticalLabelPosition=bottom;labelBackgroundColor=none;verticalAlign=top;perimeter=ellipsePerimeter;outline=standard;symbol=general;fillColor=#e1d5e7;strokeColor=#9673a6;" parent="1" vertex="1">
          <mxGeometry x="600" y="160" width="50" height="50" as="geometry" />
        </mxCell>
        <mxCell id="9monrO0C9HARq5Gm0Uuh-17" value="Облако" style="shape=mxgraph.bpmn.shape;html=1;verticalLabelPosition=bottom;labelBackgroundColor=none;verticalAlign=top;perimeter=ellipsePerimeter;outline=standard;symbol=general;fillColor=#e1d5e7;strokeColor=#9673a6;" parent="1" vertex="1">
          <mxGeometry x="700" y="160" width="50" height="50" as="geometry" />
        </mxCell>
        <mxCell id="9monrO0C9HARq5Gm0Uuh-18" value="&lt;div&gt;Бекенд&lt;/div&gt;" style="shape=mxgraph.bpmn.shape;html=1;verticalLabelPosition=bottom;labelBackgroundColor=none;verticalAlign=top;perimeter=ellipsePerimeter;outline=standard;symbol=general;fillColor=#d5e8d4;strokeColor=#82b366;" parent="1" vertex="1">
          <mxGeometry x="100" y="280" width="50" height="50" as="geometry" />
        </mxCell>
        <mxCell id="9monrO0C9HARq5Gm0Uuh-19" value="Мониторинг" style="shape=mxgraph.bpmn.shape;html=1;verticalLabelPosition=bottom;labelBackgroundColor=none;verticalAlign=top;perimeter=ellipsePerimeter;outline=standard;symbol=general;fillColor=#d5e8d4;strokeColor=#82b366;" parent="1" vertex="1">
          <mxGeometry x="400" y="280" width="50" height="50" as="geometry" />
        </mxCell>
        <mxCell id="9monrO0C9HARq5Gm0Uuh-20" value="&lt;div&gt;Фронтенд&lt;/div&gt;" style="shape=mxgraph.bpmn.shape;html=1;verticalLabelPosition=bottom;labelBackgroundColor=none;verticalAlign=top;perimeter=ellipsePerimeter;outline=standard;symbol=general;fillColor=#d5e8d4;strokeColor=#82b366;" parent="1" vertex="1">
          <mxGeometry x="200" y="280" width="50" height="50" as="geometry" />
        </mxCell>
        <mxCell id="9monrO0C9HARq5Gm0Uuh-21" value="База &lt;br&gt;данных" style="shape=mxgraph.bpmn.shape;html=1;verticalLabelPosition=bottom;labelBackgroundColor=none;verticalAlign=top;perimeter=ellipsePerimeter;outline=standard;symbol=general;fillColor=#d5e8d4;strokeColor=#82b366;" parent="1" vertex="1">
          <mxGeometry x="300" y="280" width="50" height="50" as="geometry" />
        </mxCell>
        <mxCell id="9monrO0C9HARq5Gm0Uuh-22" value="Файрвол" style="shape=mxgraph.bpmn.shape;html=1;verticalLabelPosition=bottom;labelBackgroundColor=none;verticalAlign=top;perimeter=ellipsePerimeter;outline=standard;symbol=general;fillColor=#d5e8d4;strokeColor=#82b366;" parent="1" vertex="1">
          <mxGeometry x="500" y="280" width="50" height="50" as="geometry" />
        </mxCell>
        <mxCell id="9monrO0C9HARq5Gm0Uuh-23" value="Очередь" style="shape=mxgraph.bpmn.shape;html=1;verticalLabelPosition=bottom;labelBackgroundColor=none;verticalAlign=top;perimeter=ellipsePerimeter;outline=standard;symbol=general;fillColor=#d5e8d4;strokeColor=#82b366;" parent="1" vertex="1">
          <mxGeometry x="600" y="280" width="50" height="50" as="geometry" />
        </mxCell>
        <mxCell id="9monrO0C9HARq5Gm0Uuh-24" value="Облако" style="shape=mxgraph.bpmn.shape;html=1;verticalLabelPosition=bottom;labelBackgroundColor=none;verticalAlign=top;perimeter=ellipsePerimeter;outline=standard;symbol=general;fillColor=#d5e8d4;strokeColor=#82b366;" parent="1" vertex="1">
          <mxGeometry x="700" y="280" width="50" height="50" as="geometry" />
        </mxCell>
        <mxCell id="9monrO0C9HARq5Gm0Uuh-42" style="edgeStyle=orthogonalEdgeStyle;rounded=0;orthogonalLoop=1;jettySize=auto;html=1;exitX=0.5;exitY=1;exitDx=0;exitDy=0;entryX=0.5;entryY=0;entryDx=0;entryDy=0;curved=1;labelBackgroundColor=none;" parent="1" source="9monrO0C9HARq5Gm0Uuh-25" target="9monrO0C9HARq5Gm0Uuh-8" edge="1">
          <mxGeometry relative="1" as="geometry" />
        </mxCell>
        <mxCell id="75ba1CMOg3PrHAO8wLKx-42" style="edgeStyle=orthogonalEdgeStyle;rounded=0;orthogonalLoop=1;jettySize=auto;html=1;exitX=1;exitY=0.5;exitDx=0;exitDy=0;entryX=0.5;entryY=0;entryDx=0;entryDy=0;curved=1;" edge="1" parent="1" source="9monrO0C9HARq5Gm0Uuh-25" target="9monrO0C9HARq5Gm0Uuh-7">
          <mxGeometry relative="1" as="geometry" />
        </mxCell>
        <mxCell id="75ba1CMOg3PrHAO8wLKx-43" style="edgeStyle=orthogonalEdgeStyle;rounded=0;orthogonalLoop=1;jettySize=auto;html=1;exitX=1;exitY=0.5;exitDx=0;exitDy=0;entryX=0.5;entryY=0;entryDx=0;entryDy=0;curved=1;" edge="1" parent="1" source="9monrO0C9HARq5Gm0Uuh-25" target="9monrO0C9HARq5Gm0Uuh-9">
          <mxGeometry relative="1" as="geometry" />
        </mxCell>
        <mxCell id="9monrO0C9HARq5Gm0Uuh-25" value="sudo" style="shape=mxgraph.bpmn.shape;html=1;verticalLabelPosition=bottom;labelBackgroundColor=none;verticalAlign=top;perimeter=ellipsePerimeter;outline=standard;symbol=general;fillColor=#ffe6cc;strokeColor=#d79b00;" parent="1" vertex="1">
          <mxGeometry x="400" y="520" width="50" height="50" as="geometry" />
        </mxCell>
        <mxCell id="9monrO0C9HARq5Gm0Uuh-26" value="DDoS" style="shape=mxgraph.bpmn.shape;html=1;verticalLabelPosition=bottom;labelBackgroundColor=none;verticalAlign=top;perimeter=ellipsePerimeter;outline=standard;symbol=general;fillColor=#a0522d;strokeColor=default;fontColor=#000000;" parent="1" vertex="1">
          <mxGeometry x="150" y="760" width="50" height="50" as="geometry" />
        </mxCell>
        <mxCell id="9monrO0C9HARq5Gm0Uuh-27" value="Мануал" style="shape=mxgraph.bpmn.shape;html=1;verticalLabelPosition=bottom;labelBackgroundColor=none;verticalAlign=top;perimeter=ellipsePerimeter;outline=standard;symbol=general;fillColor=#a0522d;strokeColor=default;fontColor=#000000;" parent="1" vertex="1">
          <mxGeometry x="450" y="760" width="50" height="50" as="geometry" />
        </mxCell>
        <mxCell id="9monrO0C9HARq5Gm0Uuh-28" value="Выгорание" style="shape=mxgraph.bpmn.shape;html=1;verticalLabelPosition=bottom;labelBackgroundColor=none;verticalAlign=top;perimeter=ellipsePerimeter;outline=standard;symbol=general;fillColor=#a0522d;strokeColor=default;fontColor=#000000;" parent="1" vertex="1">
          <mxGeometry x="250" y="760" width="50" height="50" as="geometry" />
        </mxCell>
        <mxCell id="9monrO0C9HARq5Gm0Uuh-29" value="Оркестратор" style="shape=mxgraph.bpmn.shape;html=1;verticalLabelPosition=bottom;labelBackgroundColor=none;verticalAlign=top;perimeter=ellipsePerimeter;outline=standard;symbol=general;fillColor=#a0522d;strokeColor=default;fontColor=#000000;" parent="1" vertex="1">
          <mxGeometry x="350" y="760" width="50" height="50" as="geometry" />
        </mxCell>
        <mxCell id="9monrO0C9HARq5Gm0Uuh-30" value="Redirect" style="shape=mxgraph.bpmn.shape;html=1;verticalLabelPosition=bottom;labelBackgroundColor=none;verticalAlign=top;perimeter=ellipsePerimeter;outline=standard;symbol=general;fillColor=#a0522d;strokeColor=default;fontColor=#000000;" parent="1" vertex="1">
          <mxGeometry x="550" y="760" width="50" height="50" as="geometry" />
        </mxCell>
        <mxCell id="9monrO0C9HARq5Gm0Uuh-33" value="Отмена" style="shape=mxgraph.bpmn.shape;html=1;verticalLabelPosition=bottom;labelBackgroundColor=none;verticalAlign=top;perimeter=ellipsePerimeter;outline=standard;symbol=general;fillColor=#a0522d;strokeColor=default;fontColor=#000000;" parent="1" vertex="1">
          <mxGeometry x="650" y="760" width="50" height="50" as="geometry" />
        </mxCell>
        <mxCell id="9monrO0C9HARq5Gm0Uuh-34" value="Легаси" style="shape=mxgraph.bpmn.shape;html=1;verticalLabelPosition=bottom;labelBackgroundColor=none;verticalAlign=top;perimeter=ellipsePerimeter;outline=standard;symbol=general;fillColor=#F702D7;strokeColor=#432D57;fontColor=#000000;" parent="1" vertex="1">
          <mxGeometry x="400" y="880" width="50" height="50" as="geometry" />
        </mxCell>
        <mxCell id="9monrO0C9HARq5Gm0Uuh-35" value="500" style="shape=mxgraph.bpmn.shape;html=1;verticalLabelPosition=bottom;labelBackgroundColor=none;verticalAlign=top;perimeter=ellipsePerimeter;outline=standard;symbol=general;fillColor=#bac8d3;strokeColor=#23445d;" parent="1" vertex="1">
          <mxGeometry x="200" y="1000" width="50" height="50" as="geometry" />
        </mxCell>
        <mxCell id="9monrO0C9HARq5Gm0Uuh-36" value="Deadline" style="shape=mxgraph.bpmn.shape;html=1;verticalLabelPosition=bottom;labelBackgroundColor=none;verticalAlign=top;perimeter=ellipsePerimeter;outline=standard;symbol=general;fillColor=#bac8d3;strokeColor=#23445d;" parent="1" vertex="1">
          <mxGeometry x="500" y="1000" width="50" height="50" as="geometry" />
        </mxCell>
        <mxCell id="9monrO0C9HARq5Gm0Uuh-37" value="0 день" style="shape=mxgraph.bpmn.shape;html=1;verticalLabelPosition=bottom;labelBackgroundColor=none;verticalAlign=top;perimeter=ellipsePerimeter;outline=standard;symbol=general;fillColor=#bac8d3;strokeColor=#23445d;" parent="1" vertex="1">
          <mxGeometry x="300" y="1000" width="50" height="50" as="geometry" />
        </mxCell>
        <mxCell id="9monrO0C9HARq5Gm0Uuh-38" value="Пятница" style="shape=mxgraph.bpmn.shape;html=1;verticalLabelPosition=bottom;labelBackgroundColor=none;verticalAlign=top;perimeter=ellipsePerimeter;outline=standard;symbol=general;fillColor=#bac8d3;strokeColor=#23445d;" parent="1" vertex="1">
          <mxGeometry x="400" y="1000" width="50" height="50" as="geometry" />
        </mxCell>
        <mxCell id="9monrO0C9HARq5Gm0Uuh-39" value="Хакерские &lt;br&gt;лапки" style="shape=mxgraph.bpmn.shape;html=1;verticalLabelPosition=bottom;labelBackgroundColor=none;verticalAlign=top;perimeter=ellipsePerimeter;outline=standard;symbol=general;fillColor=#bac8d3;strokeColor=#23445d;" parent="1" vertex="1">
          <mxGeometry x="600" y="1000" width="50" height="50" as="geometry" />
        </mxCell>
        <mxCell id="75ba1CMOg3PrHAO8wLKx-16" style="edgeStyle=orthogonalEdgeStyle;rounded=0;orthogonalLoop=1;jettySize=auto;html=1;exitX=0.5;exitY=1;exitDx=0;exitDy=0;" edge="1" parent="1" source="9monrO0C9HARq5Gm0Uuh-1" target="9monrO0C9HARq5Gm0Uuh-7">
          <mxGeometry relative="1" as="geometry" />
        </mxCell>
        <mxCell id="75ba1CMOg3PrHAO8wLKx-18" style="edgeStyle=orthogonalEdgeStyle;rounded=0;orthogonalLoop=1;jettySize=auto;html=1;exitX=0.5;exitY=1;exitDx=0;exitDy=0;" edge="1" parent="1" source="9monrO0C9HARq5Gm0Uuh-1" target="9monrO0C9HARq5Gm0Uuh-9">
          <mxGeometry relative="1" as="geometry" />
        </mxCell>
        <mxCell id="75ba1CMOg3PrHAO8wLKx-34" style="edgeStyle=orthogonalEdgeStyle;rounded=0;orthogonalLoop=1;jettySize=auto;html=1;exitX=0.5;exitY=0;exitDx=0;exitDy=0;entryX=0.5;entryY=0;entryDx=0;entryDy=0;" edge="1" parent="1" source="9monrO0C9HARq5Gm0Uuh-1" target="9monrO0C9HARq5Gm0Uuh-25">
          <mxGeometry relative="1" as="geometry" />
        </mxCell>
        <mxCell id="9monrO0C9HARq5Gm0Uuh-1" value="Уязвимость" style="shape=mxgraph.bpmn.shape;html=1;verticalLabelPosition=bottom;labelBackgroundColor=none;verticalAlign=top;perimeter=ellipsePerimeter;outline=standard;symbol=general;fillColor=#f8cecc;strokeColor=#b85450;" parent="1" vertex="1">
          <mxGeometry x="610" y="400" width="50" height="50" as="geometry" />
        </mxCell>
        <mxCell id="75ba1CMOg3PrHAO8wLKx-24" style="edgeStyle=orthogonalEdgeStyle;rounded=0;orthogonalLoop=1;jettySize=auto;html=1;exitX=0;exitY=0.5;exitDx=0;exitDy=0;entryX=0;entryY=0.5;entryDx=0;entryDy=0;" edge="1" parent="1" source="9monrO0C9HARq5Gm0Uuh-2" target="9monrO0C9HARq5Gm0Uuh-5">
          <mxGeometry relative="1" as="geometry" />
        </mxCell>
        <mxCell id="75ba1CMOg3PrHAO8wLKx-28" style="edgeStyle=orthogonalEdgeStyle;rounded=0;orthogonalLoop=1;jettySize=auto;html=1;exitX=0.5;exitY=1;exitDx=0;exitDy=0;entryX=0.5;entryY=0;entryDx=0;entryDy=0;" edge="1" parent="1" source="9monrO0C9HARq5Gm0Uuh-2" target="9monrO0C9HARq5Gm0Uuh-6">
          <mxGeometry relative="1" as="geometry" />
        </mxCell>
        <mxCell id="75ba1CMOg3PrHAO8wLKx-32" style="edgeStyle=orthogonalEdgeStyle;rounded=0;orthogonalLoop=1;jettySize=auto;html=1;exitX=0.5;exitY=0;exitDx=0;exitDy=0;entryX=0.5;entryY=0;entryDx=0;entryDy=0;" edge="1" parent="1" source="9monrO0C9HARq5Gm0Uuh-2" target="9monrO0C9HARq5Gm0Uuh-25">
          <mxGeometry relative="1" as="geometry" />
        </mxCell>
        <mxCell id="75ba1CMOg3PrHAO8wLKx-45" style="edgeStyle=orthogonalEdgeStyle;rounded=0;orthogonalLoop=1;jettySize=auto;html=1;exitX=1;exitY=0.5;exitDx=0;exitDy=0;entryX=0;entryY=0.5;entryDx=0;entryDy=0;curved=1;" edge="1" parent="1" source="9monrO0C9HARq5Gm0Uuh-2" target="9monrO0C9HARq5Gm0Uuh-8">
          <mxGeometry relative="1" as="geometry" />
        </mxCell>
        <mxCell id="9monrO0C9HARq5Gm0Uuh-2" value="&lt;div&gt;Специфическая&amp;nbsp;&lt;/div&gt;&lt;div&gt;ошибка&lt;/div&gt;" style="shape=mxgraph.bpmn.shape;html=1;verticalLabelPosition=bottom;labelBackgroundColor=none;verticalAlign=top;perimeter=ellipsePerimeter;outline=standard;symbol=general;fillColor=#f8cecc;strokeColor=#b85450;" parent="1" vertex="1">
          <mxGeometry x="200" y="400" width="50" height="50" as="geometry" />
        </mxCell>
        <mxCell id="75ba1CMOg3PrHAO8wLKx-25" style="edgeStyle=orthogonalEdgeStyle;rounded=0;orthogonalLoop=1;jettySize=auto;html=1;exitX=0;exitY=0.5;exitDx=0;exitDy=0;entryX=1;entryY=0.5;entryDx=0;entryDy=0;" edge="1" parent="1" source="9monrO0C9HARq5Gm0Uuh-3" target="9monrO0C9HARq5Gm0Uuh-5">
          <mxGeometry relative="1" as="geometry" />
        </mxCell>
        <mxCell id="75ba1CMOg3PrHAO8wLKx-29" style="edgeStyle=orthogonalEdgeStyle;rounded=0;orthogonalLoop=1;jettySize=auto;html=1;exitX=0;exitY=0.5;exitDx=0;exitDy=0;entryX=0.5;entryY=0;entryDx=0;entryDy=0;" edge="1" parent="1" source="9monrO0C9HARq5Gm0Uuh-3" target="9monrO0C9HARq5Gm0Uuh-6">
          <mxGeometry relative="1" as="geometry" />
        </mxCell>
        <mxCell id="75ba1CMOg3PrHAO8wLKx-30" style="edgeStyle=orthogonalEdgeStyle;rounded=0;orthogonalLoop=1;jettySize=auto;html=1;exitX=0.5;exitY=0;exitDx=0;exitDy=0;entryX=0.5;entryY=0;entryDx=0;entryDy=0;" edge="1" parent="1" source="9monrO0C9HARq5Gm0Uuh-3" target="9monrO0C9HARq5Gm0Uuh-25">
          <mxGeometry relative="1" as="geometry" />
        </mxCell>
        <mxCell id="75ba1CMOg3PrHAO8wLKx-44" style="edgeStyle=orthogonalEdgeStyle;rounded=0;orthogonalLoop=1;jettySize=auto;html=1;exitX=1;exitY=0.5;exitDx=0;exitDy=0;entryX=0;entryY=0.5;entryDx=0;entryDy=0;curved=1;" edge="1" parent="1" source="9monrO0C9HARq5Gm0Uuh-3" target="9monrO0C9HARq5Gm0Uuh-8">
          <mxGeometry relative="1" as="geometry" />
        </mxCell>
        <mxCell id="9monrO0C9HARq5Gm0Uuh-3" value="Критическая &lt;br&gt;ошибка" style="shape=mxgraph.bpmn.shape;html=1;verticalLabelPosition=bottom;labelBackgroundColor=none;verticalAlign=top;perimeter=ellipsePerimeter;outline=standard;symbol=general;fillColor=#f8cecc;strokeColor=#b85450;" parent="1" vertex="1">
          <mxGeometry x="300" y="400" width="50" height="50" as="geometry" />
        </mxCell>
        <mxCell id="75ba1CMOg3PrHAO8wLKx-40" style="edgeStyle=orthogonalEdgeStyle;rounded=0;orthogonalLoop=1;jettySize=auto;html=1;exitX=0.5;exitY=0;exitDx=0;exitDy=0;entryX=0;entryY=0.5;entryDx=0;entryDy=0;curved=1;" edge="1" parent="1" source="9monrO0C9HARq5Gm0Uuh-6" target="9monrO0C9HARq5Gm0Uuh-25">
          <mxGeometry relative="1" as="geometry" />
        </mxCell>
        <mxCell id="9monrO0C9HARq5Gm0Uuh-6" value="CI" style="shape=mxgraph.bpmn.shape;html=1;verticalLabelPosition=bottom;labelBackgroundColor=none;verticalAlign=top;perimeter=ellipsePerimeter;outline=standard;symbol=general;fillColor=#dae8fc;strokeColor=#6c8ebf;" parent="1" vertex="1">
          <mxGeometry x="300" y="640" width="50" height="50" as="geometry" />
        </mxCell>
        <mxCell id="75ba1CMOg3PrHAO8wLKx-46" style="edgeStyle=orthogonalEdgeStyle;rounded=0;orthogonalLoop=1;jettySize=auto;html=1;exitX=0.855;exitY=0.855;exitDx=0;exitDy=0;exitPerimeter=0;entryX=0.145;entryY=0.145;entryDx=0;entryDy=0;entryPerimeter=0;curved=1;" edge="1" parent="1" source="7a84cebc1def654-1" target="9monrO0C9HARq5Gm0Uuh-8">
          <mxGeometry relative="1" as="geometry" />
        </mxCell>
      </root>
    </mxGraphModel>
  </diagram>
</mxfile>
